<svg width="24" height="24" viewBox="0 0 24 24" fill="none" xmlns="http://www.w3.org/2000/svg">
<path d="M0 12C0 8.27247 0 6.4087 0.608964 4.93853C1.42092 2.97831 2.97831 1.42092 4.93853 0.608964C6.4087 0 8.27247 0 12 0C15.7275 0 17.5913 0 19.0615 0.608964C21.0217 1.42092 22.5791 2.97831 23.391 4.93853C24 6.4087 24 8.27247 24 12C24 15.7275 24 17.5913 23.391 19.0615C22.5791 21.0217 21.0217 22.5791 19.0615 23.391C17.5913 24 15.7275 24 12 24C8.27247 24 6.4087 24 4.93853 23.391C2.97831 22.5791 1.42092 21.0217 0.608964 19.0615C0 17.5913 0 15.7275 0 12Z" fill="#37B24D"/>
<path fill-rule="evenodd" clip-rule="evenodd" d="M7.69083 22.9262C8.76455 22.9995 10.1226 23 12 23C13.8774 23 15.2355 22.9995 16.3092 22.9262C17.3739 22.8536 18.0859 22.7128 18.6788 22.4672C20.394 21.7567 21.7567 20.394 22.4672 18.6788C22.7128 18.0859 22.8536 17.3739 22.9262 16.3092C22.9995 15.2355 23 13.8774 23 12C23 10.1226 22.9995 8.76455 22.9262 7.69083C22.8536 6.62609 22.7128 5.91414 22.4672 5.32122C21.7567 3.60602 20.394 2.2433 18.6788 1.53284C18.0859 1.28724 17.3739 1.14645 16.3092 1.0738C15.2355 1.00054 13.8774 1 12 1C10.1226 1 8.76455 1.00054 7.69083 1.0738C6.62609 1.14645 5.91414 1.28724 5.32122 1.53284C3.60602 2.2433 2.2433 3.60602 1.53284 5.32122C1.28724 5.91414 1.14645 6.62609 1.0738 7.69083C1.00054 8.76455 1 10.1226 1 12C1 13.8774 1.00054 15.2355 1.0738 16.3092C1.14645 17.3739 1.28724 18.0859 1.53284 18.6788C2.2433 20.394 3.60602 21.7567 5.32122 22.4672C5.91414 22.7128 6.62609 22.8536 7.69083 22.9262ZM0.608964 4.93853C0 6.4087 0 8.27247 0 12C0 15.7275 0 17.5913 0.608964 19.0615C1.42092 21.0217 2.97831 22.5791 4.93853 23.391C6.4087 24 8.27247 24 12 24C15.7275 24 17.5913 24 19.0615 23.391C21.0217 22.5791 22.5791 21.0217 23.391 19.0615C24 17.5913 24 15.7275 24 12C24 8.27247 24 6.4087 23.391 4.93853C22.5791 2.97831 21.0217 1.42092 19.0615 0.608964C17.5913 0 15.7275 0 12 0C8.27247 0 6.4087 0 4.93853 0.608964C2.97831 1.42092 1.42092 2.97831 0.608964 4.93853Z" fill="#5FC171"/>
<g filter="url(#filter0_d_2254_716)">
<path fill-rule="evenodd" clip-rule="evenodd" d="M11.7764 14.9472C9.81618 13.9702 8.75731 14.3108 8.20921 14.7149C7.98695 14.8788 7.67392 14.8315 7.51005 14.6092C7.34618 14.387 7.39351 14.0739 7.61578 13.9101C8.54262 13.2267 10.0211 12.9548 12.2231 14.0525L12.2241 14.053C13.2829 14.5839 14.0762 14.7217 14.6577 14.6824C15.2327 14.6435 15.6362 14.4292 15.9197 14.1879C16.13 14.009 16.4456 14.0344 16.6245 14.2447C16.8035 14.455 16.7781 14.7706 16.5678 14.9496C16.1388 15.3146 15.5361 15.6253 14.7251 15.6801C13.9208 15.7345 12.9487 15.5349 11.7764 14.9472Z" fill="#9BD9A6"/>
</g>
<g filter="url(#filter1_d_2254_716)">
<path fill-rule="evenodd" clip-rule="evenodd" d="M10 6.5H9.50001C9.22386 6.5 9.00001 6.27614 9.00001 6C9.00001 5.72386 9.22386 5.5 9.50001 5.5H14.5C14.7761 5.5 15 5.72386 15 6C15 6.27614 14.7761 6.5 14.5 6.5H14V9.85975C14.0001 9.86314 14.0009 9.86648 14.0023 9.86955L17.9731 16.4875C18.0633 16.6386 18.112 16.8109 18.1143 16.9869C18.1166 17.163 18.0724 17.3365 17.9862 17.4899C17.9 17.6434 17.7747 17.7714 17.6232 17.8609C17.4716 17.9505 17.2991 17.9985 17.1231 18L17.1188 18L6.87692 18C6.7009 17.9985 6.52839 17.9505 6.37684 17.8609C6.22529 17.7714 6.10006 17.6434 6.01382 17.4899C5.92758 17.3365 5.88337 17.163 5.88568 16.9869C5.88798 16.8109 5.9367 16.6386 6.02692 16.4875L6.02751 16.4865L9.99768 9.86955C9.99911 9.86648 9.9999 9.86316 10 9.85977V6.5ZM11 6.5V9.86584C10.9988 10.0413 10.9526 10.2136 10.8658 10.3661L10.86 10.376L6.8856 17H17.1144L13.14 10.376L13.1342 10.3661C13.0474 10.2136 13.0012 10.0413 13 9.86584L13 9.8625L13 6.5H11Z" fill="white"/>
</g>
<defs>
<filter id="filter0_d_2254_716" x="6.41246" y="12.8125" width="11.3313" height="4.37616" filterUnits="userSpaceOnUse" color-interpolation-filters="sRGB">
<feFlood flood-opacity="0" result="BackgroundImageFix"/>
<feColorMatrix in="SourceAlpha" type="matrix" values="0 0 0 0 0 0 0 0 0 0 0 0 0 0 0 0 0 0 127 0" result="hardAlpha"/>
<feOffset dy="0.5"/>
<feGaussianBlur stdDeviation="0.5"/>
<feComposite in2="hardAlpha" operator="out"/>
<feColorMatrix type="matrix" values="0 0 0 0 0 0 0 0 0 0 0 0 0 0 0 0 0 0 0.15 0"/>
<feBlend mode="normal" in2="BackgroundImageFix" result="effect1_dropShadow_2254_716"/>
<feBlend mode="normal" in="SourceGraphic" in2="effect1_dropShadow_2254_716" result="shape"/>
</filter>
<filter id="filter1_d_2254_716" x="4.88559" y="5" width="14.2288" height="14.5" filterUnits="userSpaceOnUse" color-interpolation-filters="sRGB">
<feFlood flood-opacity="0" result="BackgroundImageFix"/>
<feColorMatrix in="SourceAlpha" type="matrix" values="0 0 0 0 0 0 0 0 0 0 0 0 0 0 0 0 0 0 127 0" result="hardAlpha"/>
<feOffset dy="0.5"/>
<feGaussianBlur stdDeviation="0.5"/>
<feComposite in2="hardAlpha" operator="out"/>
<feColorMatrix type="matrix" values="0 0 0 0 0 0 0 0 0 0 0 0 0 0 0 0 0 0 0.15 0"/>
<feBlend mode="normal" in2="BackgroundImageFix" result="effect1_dropShadow_2254_716"/>
<feBlend mode="normal" in="SourceGraphic" in2="effect1_dropShadow_2254_716" result="shape"/>
</filter>
</defs>
</svg>
