<svg width="24" height="24" viewBox="0 0 24 24" fill="none" xmlns="http://www.w3.org/2000/svg">
<path d="M0 12C0 8.27247 0 6.4087 0.608964 4.93853C1.42092 2.97831 2.97831 1.42092 4.93853 0.608964C6.4087 0 8.27247 0 12 0C15.7275 0 17.5913 0 19.0615 0.608964C21.0217 1.42092 22.5791 2.97831 23.391 4.93853C24 6.4087 24 8.27247 24 12C24 15.7275 24 17.5913 23.391 19.0615C22.5791 21.0217 21.0217 22.5791 19.0615 23.391C17.5913 24 15.7275 24 12 24C8.27247 24 6.4087 24 4.93853 23.391C2.97831 22.5791 1.42092 21.0217 0.608964 19.0615C0 17.5913 0 15.7275 0 12Z" fill="#0086FF"/>
<path fill-rule="evenodd" clip-rule="evenodd" d="M7.69083 22.9262C8.76455 22.9995 10.1226 23 12 23C13.8774 23 15.2355 22.9995 16.3092 22.9262C17.3739 22.8536 18.0859 22.7128 18.6788 22.4672C20.394 21.7567 21.7567 20.394 22.4672 18.6788C22.7128 18.0859 22.8536 17.3739 22.9262 16.3092C22.9995 15.2355 23 13.8774 23 12C23 10.1226 22.9995 8.76455 22.9262 7.69083C22.8536 6.62609 22.7128 5.91414 22.4672 5.32122C21.7567 3.60602 20.394 2.2433 18.6788 1.53284C18.0859 1.28724 17.3739 1.14645 16.3092 1.0738C15.2355 1.00054 13.8774 1 12 1C10.1226 1 8.76455 1.00054 7.69083 1.0738C6.62609 1.14645 5.91414 1.28724 5.32122 1.53284C3.60602 2.2433 2.2433 3.60602 1.53284 5.32122C1.28724 5.91414 1.14645 6.62609 1.0738 7.69083C1.00054 8.76455 1 10.1226 1 12C1 13.8774 1.00054 15.2355 1.0738 16.3092C1.14645 17.3739 1.28724 18.0859 1.53284 18.6788C2.2433 20.394 3.60602 21.7567 5.32122 22.4672C5.91414 22.7128 6.62609 22.8536 7.69083 22.9262ZM0.608964 4.93853C0 6.4087 0 8.27247 0 12C0 15.7275 0 17.5913 0.608964 19.0615C1.42092 21.0217 2.97831 22.5791 4.93853 23.391C6.4087 24 8.27247 24 12 24C15.7275 24 17.5913 24 19.0615 23.391C21.0217 22.5791 22.5791 21.0217 23.391 19.0615C24 17.5913 24 15.7275 24 12C24 8.27247 24 6.4087 23.391 4.93853C22.5791 2.97831 21.0217 1.42092 19.0615 0.608964C17.5913 0 15.7275 0 12 0C8.27247 0 6.4087 0 4.93853 0.608964C2.97831 1.42092 1.42092 2.97831 0.608964 4.93853Z" fill="#339EFF"/>
<g filter="url(#filter0_d_2254_727)">
<path d="M6 8.5C6 8.22386 6.22386 8 6.5 8H10.5C10.7761 8 11 8.22386 11 8.5C11 8.77614 10.7761 9 10.5 9H6.5C6.22386 9 6 8.77614 6 8.5Z" fill="#80C3FF"/>
<path d="M13 14.5063C13 14.2301 13.2239 14.0063 13.5 14.0063H17.5C17.7761 14.0063 18 14.2301 18 14.5063C18 14.7824 17.7761 15.0063 17.5 15.0063H13.5C13.2239 15.0063 13 14.7824 13 14.5063Z" fill="#80C3FF"/>
<path d="M13.5 15.9937C13.2239 15.9937 13 16.2176 13 16.4937C13 16.7699 13.2239 16.9937 13.5 16.9937H17.5C17.7761 16.9937 18 16.7699 18 16.4937C18 16.2176 17.7761 15.9937 17.5 15.9937H13.5Z" fill="#80C3FF"/>
</g>
<g filter="url(#filter1_d_2254_727)">
<path d="M17.3536 6.64645C17.5488 6.84171 17.5488 7.15829 17.3536 7.35355L16.2071 8.5L17.3536 9.64645C17.5488 9.84171 17.5488 10.1583 17.3536 10.3536C17.1583 10.5488 16.8417 10.5488 16.6464 10.3536L15.5 9.20711L14.3536 10.3536C14.1583 10.5488 13.8417 10.5488 13.6464 10.3536C13.4512 10.1583 13.4512 9.84171 13.6464 9.64645L14.7929 8.5L13.6464 7.35355C13.4512 7.15829 13.4512 6.84171 13.6464 6.64645C13.8417 6.45118 14.1583 6.45118 14.3536 6.64645L15.5 7.79289L16.6464 6.64645C16.8417 6.45118 17.1583 6.45118 17.3536 6.64645Z" fill="white"/>
<path d="M8.5 13C8.77614 13 9 13.2239 9 13.5V15H10.5C10.7761 15 11 15.2239 11 15.5C11 15.7761 10.7761 16 10.5 16H9V17.5C9 17.7761 8.77614 18 8.5 18C8.22386 18 8 17.7761 8 17.5V16H6.5C6.22386 16 6 15.7761 6 15.5C6 15.2239 6.22386 15 6.5 15H8V13.5C8 13.2239 8.22386 13 8.5 13Z" fill="white"/>
</g>
<defs>
<filter id="filter0_d_2254_727" x="5" y="7.5" width="14" height="10.9937" filterUnits="userSpaceOnUse" color-interpolation-filters="sRGB">
<feFlood flood-opacity="0" result="BackgroundImageFix"/>
<feColorMatrix in="SourceAlpha" type="matrix" values="0 0 0 0 0 0 0 0 0 0 0 0 0 0 0 0 0 0 127 0" result="hardAlpha"/>
<feOffset dy="0.5"/>
<feGaussianBlur stdDeviation="0.5"/>
<feComposite in2="hardAlpha" operator="out"/>
<feColorMatrix type="matrix" values="0 0 0 0 0 0 0 0 0 0 0 0 0 0 0 0 0 0 0.15 0"/>
<feBlend mode="normal" in2="BackgroundImageFix" result="effect1_dropShadow_2254_727"/>
<feBlend mode="normal" in="SourceGraphic" in2="effect1_dropShadow_2254_727" result="shape"/>
</filter>
<filter id="filter1_d_2254_727" x="5" y="6" width="13.5" height="13.5" filterUnits="userSpaceOnUse" color-interpolation-filters="sRGB">
<feFlood flood-opacity="0" result="BackgroundImageFix"/>
<feColorMatrix in="SourceAlpha" type="matrix" values="0 0 0 0 0 0 0 0 0 0 0 0 0 0 0 0 0 0 127 0" result="hardAlpha"/>
<feOffset dy="0.5"/>
<feGaussianBlur stdDeviation="0.5"/>
<feComposite in2="hardAlpha" operator="out"/>
<feColorMatrix type="matrix" values="0 0 0 0 0 0 0 0 0 0 0 0 0 0 0 0 0 0 0.15 0"/>
<feBlend mode="normal" in2="BackgroundImageFix" result="effect1_dropShadow_2254_727"/>
<feBlend mode="normal" in="SourceGraphic" in2="effect1_dropShadow_2254_727" result="shape"/>
</filter>
</defs>
</svg>
