<svg width="24" height="24" viewBox="0 0 24 24" fill="none" xmlns="http://www.w3.org/2000/svg">
<path d="M0 12C0 8.27247 0 6.4087 0.608964 4.93853C1.42092 2.97831 2.97831 1.42092 4.93853 0.608964C6.4087 0 8.27247 0 12 0C15.7275 0 17.5913 0 19.0615 0.608964C21.0217 1.42092 22.5791 2.97831 23.391 4.93853C24 6.4087 24 8.27247 24 12C24 15.7275 24 17.5913 23.391 19.0615C22.5791 21.0217 21.0217 22.5791 19.0615 23.391C17.5913 24 15.7275 24 12 24C8.27247 24 6.4087 24 4.93853 23.391C2.97831 22.5791 1.42092 21.0217 0.608964 19.0615C0 17.5913 0 15.7275 0 12Z" fill="url(#paint0_linear_2254_703)"/>
<path fill-rule="evenodd" clip-rule="evenodd" d="M7.69083 22.9262C8.76455 22.9995 10.1226 23 12 23C13.8774 23 15.2355 22.9995 16.3092 22.9262C17.3739 22.8536 18.0859 22.7128 18.6788 22.4672C20.394 21.7567 21.7567 20.394 22.4672 18.6788C22.7128 18.0859 22.8536 17.3739 22.9262 16.3092C22.9995 15.2355 23 13.8774 23 12C23 10.1226 22.9995 8.76455 22.9262 7.69083C22.8536 6.62609 22.7128 5.91414 22.4672 5.32122C21.7567 3.60602 20.394 2.2433 18.6788 1.53284C18.0859 1.28724 17.3739 1.14645 16.3092 1.0738C15.2355 1.00054 13.8774 1 12 1C10.1226 1 8.76455 1.00054 7.69083 1.0738C6.62609 1.14645 5.91414 1.28724 5.32122 1.53284C3.60602 2.2433 2.2433 3.60602 1.53284 5.32122C1.28724 5.91414 1.14645 6.62609 1.0738 7.69083C1.00054 8.76455 1 10.1226 1 12C1 13.8774 1.00054 15.2355 1.0738 16.3092C1.14645 17.3739 1.28724 18.0859 1.53284 18.6788C2.2433 20.394 3.60602 21.7567 5.32122 22.4672C5.91414 22.7128 6.62609 22.8536 7.69083 22.9262ZM0.608964 4.93853C0 6.4087 0 8.27247 0 12C0 15.7275 0 17.5913 0.608964 19.0615C1.42092 21.0217 2.97831 22.5791 4.93853 23.391C6.4087 24 8.27247 24 12 24C15.7275 24 17.5913 24 19.0615 23.391C21.0217 22.5791 22.5791 21.0217 23.391 19.0615C24 17.5913 24 15.7275 24 12C24 8.27247 24 6.4087 23.391 4.93853C22.5791 2.97831 21.0217 1.42092 19.0615 0.608964C17.5913 0 15.7275 0 12 0C8.27247 0 6.4087 0 4.93853 0.608964C2.97831 1.42092 1.42092 2.97831 0.608964 4.93853Z" fill="#FF913A"/>
<g filter="url(#filter0_d_2254_703)">
<path fill-rule="evenodd" clip-rule="evenodd" d="M7.45716 9.54484C8.00232 10.7563 9.02612 12.2069 10.4102 13.591C11.7943 14.9751 13.2449 15.9989 14.4564 16.5441C15.0638 16.8174 15.5861 16.9591 15.9951 16.9813C16.4044 17.0036 16.6415 16.9057 16.7742 16.773C16.9068 16.6403 17.0048 16.4032 16.9825 15.9939C16.9602 15.585 16.8186 15.0627 16.5452 14.4552C16.0001 13.2437 14.9763 11.7931 13.5922 10.409C12.2081 9.02494 10.7575 8.00114 9.54601 7.45598C8.93856 7.18262 8.41626 7.04097 8.00728 7.01872C7.59798 6.99645 7.3609 7.09438 7.22823 7.22705C7.09555 7.35972 6.99763 7.5968 7.0199 8.0061C7.04215 8.41508 7.1838 8.93738 7.45716 9.54484ZM6.02137 8.06043C5.9901 7.48562 6.11682 6.92424 6.52112 6.51994C6.92542 6.11564 7.4868 5.98892 8.06161 6.0202C8.63675 6.05149 9.28423 6.24159 9.95638 6.54406C11.3041 7.15055 12.8521 8.25471 14.2993 9.70192C15.7465 11.1491 16.8507 12.6971 17.4572 14.0448C17.7596 14.717 17.9497 15.3645 17.981 15.9396C18.0123 16.5144 17.8856 17.0758 17.4813 17.4801C17.077 17.8844 16.5156 18.0111 15.9408 17.9798C15.3656 17.9485 14.7182 17.7585 14.046 17.456C12.6983 16.8495 11.1503 15.7453 9.7031 14.2981C8.25588 12.8509 7.15172 11.303 6.54524 9.9552C6.24277 9.28305 6.05267 8.63557 6.02137 8.06043Z" fill="#FFCBA3"/>
</g>
<g filter="url(#filter1_d_2254_703)">
<path fill-rule="evenodd" clip-rule="evenodd" d="M7.0199 15.9939C6.99763 16.4032 7.09555 16.6403 7.22823 16.773C7.3609 16.9056 7.59798 17.0036 8.00728 16.9813C8.41626 16.959 8.93856 16.8174 9.54601 16.544C10.7575 15.9989 12.2081 14.9751 13.5922 13.591C14.9763 12.2069 16.0001 10.7563 16.5452 9.5448C16.8186 8.93734 16.9602 8.41504 16.9825 8.00606C17.0048 7.59676 16.9068 7.35968 16.7742 7.22701C16.6415 7.09434 16.4044 6.99641 15.9951 7.01868C15.5861 7.04093 15.0638 7.18258 14.4564 7.45594C13.2449 8.0011 11.7943 9.0249 10.4102 10.409C9.02612 11.7931 8.00232 13.2437 7.45716 14.4552C7.1838 15.0626 7.04215 15.5849 7.0199 15.9939ZM6.54524 14.0448C7.15172 12.697 8.25589 11.1491 9.7031 9.70188C11.1503 8.25467 12.6983 7.15051 14.046 6.54402C14.7182 6.24155 15.3656 6.05145 15.9408 6.02016C16.5156 5.98888 17.077 6.1156 17.4813 6.5199C17.8856 6.9242 18.0123 7.48558 17.981 8.06039C17.9497 8.63553 17.7596 9.28301 17.4572 9.95516C16.8507 11.3029 15.7465 12.8509 14.2993 14.2981C12.8521 15.7453 11.3041 16.8495 9.95638 17.4559C9.28423 17.7584 8.63675 17.9485 8.06161 17.9798C7.4868 18.0111 6.92542 17.8844 6.52112 17.4801C6.11682 17.0758 5.9901 16.5144 6.02137 15.9396C6.05267 15.3644 6.24277 14.717 6.54524 14.0448Z" fill="white"/>
</g>
<g filter="url(#filter2_d_2254_703)">
<path d="M12 12.75C12.4142 12.75 12.75 12.4142 12.75 12C12.75 11.5858 12.4142 11.25 12 11.25C11.5858 11.25 11.25 11.5858 11.25 12C11.25 12.4142 11.5858 12.75 12 12.75Z" fill="white"/>
</g>
<defs>
<filter id="filter0_d_2254_703" x="5.01685" y="5.51566" width="13.9687" height="13.9687" filterUnits="userSpaceOnUse" color-interpolation-filters="sRGB">
<feFlood flood-opacity="0" result="BackgroundImageFix"/>
<feColorMatrix in="SourceAlpha" type="matrix" values="0 0 0 0 0 0 0 0 0 0 0 0 0 0 0 0 0 0 127 0" result="hardAlpha"/>
<feOffset dy="0.5"/>
<feGaussianBlur stdDeviation="0.5"/>
<feComposite in2="hardAlpha" operator="out"/>
<feColorMatrix type="matrix" values="0 0 0 0 0 0 0 0 0 0 0 0 0 0 0 0 0 0 0.15 0"/>
<feBlend mode="normal" in2="BackgroundImageFix" result="effect1_dropShadow_2254_703"/>
<feBlend mode="normal" in="SourceGraphic" in2="effect1_dropShadow_2254_703" result="shape"/>
</filter>
<filter id="filter1_d_2254_703" x="5.01685" y="5.51562" width="13.9687" height="13.9687" filterUnits="userSpaceOnUse" color-interpolation-filters="sRGB">
<feFlood flood-opacity="0" result="BackgroundImageFix"/>
<feColorMatrix in="SourceAlpha" type="matrix" values="0 0 0 0 0 0 0 0 0 0 0 0 0 0 0 0 0 0 127 0" result="hardAlpha"/>
<feOffset dy="0.5"/>
<feGaussianBlur stdDeviation="0.5"/>
<feComposite in2="hardAlpha" operator="out"/>
<feColorMatrix type="matrix" values="0 0 0 0 0 0 0 0 0 0 0 0 0 0 0 0 0 0 0.15 0"/>
<feBlend mode="normal" in2="BackgroundImageFix" result="effect1_dropShadow_2254_703"/>
<feBlend mode="normal" in="SourceGraphic" in2="effect1_dropShadow_2254_703" result="shape"/>
</filter>
<filter id="filter2_d_2254_703" x="10.25" y="10.75" width="3.5" height="3.5" filterUnits="userSpaceOnUse" color-interpolation-filters="sRGB">
<feFlood flood-opacity="0" result="BackgroundImageFix"/>
<feColorMatrix in="SourceAlpha" type="matrix" values="0 0 0 0 0 0 0 0 0 0 0 0 0 0 0 0 0 0 127 0" result="hardAlpha"/>
<feOffset dy="0.5"/>
<feGaussianBlur stdDeviation="0.5"/>
<feComposite in2="hardAlpha" operator="out"/>
<feColorMatrix type="matrix" values="0 0 0 0 0 0 0 0 0 0 0 0 0 0 0 0 0 0 0.15 0"/>
<feBlend mode="normal" in2="BackgroundImageFix" result="effect1_dropShadow_2254_703"/>
<feBlend mode="normal" in="SourceGraphic" in2="effect1_dropShadow_2254_703" result="shape"/>
</filter>
<linearGradient id="paint0_linear_2254_703" x1="3.33333" y1="1.66667" x2="22" y2="22.6667" gradientUnits="userSpaceOnUse">
<stop stop-color="#FF8525"/>
<stop offset="1" stop-color="#FF7000"/>
</linearGradient>
</defs>
</svg>
