<svg width="59" height="36" viewBox="0 0 59 36" fill="none" xmlns="http://www.w3.org/2000/svg">
<path d="M5.62495 11.75C5.62495 11.4048 5.90477 11.125 6.24995 11.125C6.59513 11.125 6.87495 11.4048 6.87495 11.75V22.7412L8.30806 21.3081C8.55214 21.064 8.94777 21.064 9.19185 21.3081C9.43593 21.5522 9.43593 21.9478 9.19185 22.1919L6.69185 24.6919C6.44777 24.936 6.05214 24.936 5.80806 24.6919L3.30806 22.1919C3.06398 21.9478 3.06398 21.5522 3.30806 21.3081C3.55214 21.064 3.94777 21.064 4.19185 21.3081L5.62495 22.7412V11.75ZM13.125 24.25V13.2588L11.6918 14.6919C11.4478 14.936 11.0521 14.936 10.8081 14.6919C10.564 14.4478 10.564 14.0522 10.8081 13.8081L13.3081 11.3081L13.3553 11.265C13.6007 11.0647 13.963 11.0793 14.1918 11.3081L16.6918 13.8081C16.9359 14.0522 16.9359 14.4478 16.6918 14.6919C16.4478 14.936 16.0521 14.936 15.8081 14.6919L14.375 13.2588V24.25C14.375 24.5952 14.0951 24.875 13.75 24.875C13.4048 24.875 13.125 24.5952 13.125 24.25Z" fill="#0065DE"/>
<path d="M32.9326 15.4929C32.8796 15.0223 32.6608 14.6577 32.2764 14.3991C31.8919 14.1373 31.408 14.0064 30.8247 14.0064C30.407 14.0064 30.0458 14.0727 29.7409 14.2053C29.4359 14.3345 29.199 14.5135 29.0299 14.7422C28.8642 14.9676 28.7813 15.2244 28.7813 15.5128C28.7813 15.7547 28.8377 15.9635 28.9504 16.1392C29.0664 16.3149 29.2172 16.4624 29.4028 16.5817C29.5917 16.6977 29.7939 16.7955 30.0093 16.875C30.2248 16.9512 30.4319 17.0142 30.6308 17.0639L31.6251 17.3224C31.9499 17.402 32.283 17.5097 32.6244 17.6456C32.9658 17.7815 33.2823 17.9605 33.574 18.1825C33.8656 18.4046 34.1009 18.6797 34.2799 19.0078C34.4622 19.3359 34.5534 19.7287 34.5534 20.1861C34.5534 20.7628 34.4042 21.2749 34.1059 21.7223C33.8109 22.1697 33.3817 22.5227 32.8183 22.7812C32.2581 23.0398 31.5803 23.169 30.7849 23.169C30.0226 23.169 29.363 23.0481 28.8062 22.8061C28.2494 22.5642 27.8135 22.2211 27.4987 21.777C27.1838 21.3295 27.0098 20.7992 26.9767 20.1861H28.5178C28.5477 20.554 28.667 20.8606 28.8758 21.1058C29.0879 21.3478 29.358 21.5284 29.6862 21.6477C30.0176 21.7637 30.3805 21.8217 30.7749 21.8217C31.2091 21.8217 31.5953 21.7538 31.9333 21.6179C32.2747 21.4787 32.5432 21.2865 32.7387 21.0412C32.9343 20.7926 33.032 20.5026 33.032 20.1712C33.032 19.8696 32.9459 19.6226 32.7735 19.4304C32.6045 19.2382 32.3741 19.0791 32.0825 18.9531C31.7941 18.8272 31.4677 18.7161 31.1031 18.62L29.8999 18.2919C29.0846 18.0698 28.4383 17.7434 27.961 17.3125C27.4871 16.8816 27.2501 16.3116 27.2501 15.6023C27.2501 15.0156 27.4092 14.5036 27.7274 14.0661C28.0455 13.6286 28.4764 13.2888 29.02 13.0469C29.5635 12.8016 30.1767 12.679 30.8595 12.679C31.5489 12.679 32.157 12.8 32.684 13.0419C33.2143 13.2839 33.632 13.617 33.9369 14.0412C34.2418 14.4621 34.4009 14.946 34.4142 15.4929H32.9326ZM39.4864 23.1541C38.7705 23.1541 38.1457 22.9901 37.6121 22.6619C37.0785 22.3338 36.6642 21.8748 36.3692 21.2848C36.0742 20.6948 35.9268 20.0054 35.9268 19.2166C35.9268 18.4245 36.0742 17.7318 36.3692 17.1385C36.6642 16.5452 37.0785 16.0845 37.6121 15.7564C38.1457 15.4283 38.7705 15.2642 39.4864 15.2642C40.2023 15.2642 40.8271 15.4283 41.3607 15.7564C41.8943 16.0845 42.3086 16.5452 42.6036 17.1385C42.8986 17.7318 43.0461 18.4245 43.0461 19.2166C43.0461 20.0054 42.8986 20.6948 42.6036 21.2848C42.3086 21.8748 41.8943 22.3338 41.3607 22.6619C40.8271 22.9901 40.2023 23.1541 39.4864 23.1541ZM39.4914 21.9062C39.9554 21.9062 40.3399 21.7836 40.6448 21.5384C40.9497 21.2931 41.1751 20.9666 41.3209 20.5589C41.4701 20.1513 41.5447 19.7022 41.5447 19.2116C41.5447 18.7244 41.4701 18.277 41.3209 17.8693C41.1751 17.4583 40.9497 17.1286 40.6448 16.88C40.3399 16.6314 39.9554 16.5071 39.4914 16.5071C39.0241 16.5071 38.6363 16.6314 38.328 16.88C38.0231 17.1286 37.7961 17.4583 37.6469 17.8693C37.5011 18.277 37.4282 18.7244 37.4282 19.2116C37.4282 19.7022 37.5011 20.1513 37.6469 20.5589C37.7961 20.9666 38.0231 21.2931 38.328 21.5384C38.6363 21.7836 39.0241 21.9062 39.4914 21.9062ZM44.7053 23V15.3636H46.1421V16.5767H46.2217C46.3609 16.1657 46.6061 15.8426 46.9575 15.6072C47.3121 15.3686 47.7132 15.2493 48.1606 15.2493C48.2534 15.2493 48.3628 15.2526 48.4887 15.2592C48.618 15.2659 48.7191 15.2741 48.792 15.2841V16.706C48.7323 16.6894 48.6263 16.6712 48.4738 16.6513C48.3213 16.6281 48.1689 16.6165 48.0164 16.6165C47.6651 16.6165 47.3519 16.6911 47.0768 16.8402C46.805 16.986 46.5896 17.1899 46.4305 17.4517C46.2714 17.7102 46.1919 18.0052 46.1919 18.3366V23H44.7053ZM54.0942 15.3636V16.5568H49.923V15.3636H54.0942ZM51.0416 13.5341H52.5281V20.7578C52.5281 21.0462 52.5712 21.2633 52.6574 21.4091C52.7436 21.5516 52.8546 21.6494 52.9905 21.7024C53.1297 21.7521 53.2805 21.777 53.4429 21.777C53.5622 21.777 53.6666 21.7687 53.7561 21.7521C53.8456 21.7356 53.9152 21.7223 53.9649 21.7124L54.2334 22.9403C54.1472 22.9735 54.0246 23.0066 53.8655 23.0398C53.7064 23.0762 53.5075 23.0961 53.2689 23.0994C52.8778 23.1061 52.5132 23.0365 52.1752 22.8906C51.8371 22.7448 51.5637 22.5194 51.3548 22.2145C51.146 21.9096 51.0416 21.5268 51.0416 21.0661V13.5341Z" fill="#0065DE"/>
</svg>
